<svg width="20" height="16" viewBox="0 0 20 16" fill="none" xmlns="http://www.w3.org/2000/svg">
  <rect y="0.858398" width="20" height="14.2857" rx="2" fill="white" />
  <mask id="mask0_6638_1863" style="mask-type:luminance" maskUnits="userSpaceOnUse" x="0" y="0"
    width="20" height="16">
    <rect y="0.858398" width="20" height="14.2857" rx="2" fill="white" />
  </mask>
  <g mask="url(#mask0_6638_1863)">
    <rect y="0.858398" width="20" height="14.2857" fill="#F1361D" />
    <path fill-rule="evenodd" clip-rule="evenodd"
      d="M7.1947 3.07335L7.88645 3.19128L8.40526 3.66378L8.52319 2.97203L8.99569 2.45322L8.30394 2.33529L7.78513 1.86279L7.6672 2.55454L7.1947 3.07335ZM9.04757 5.49288L9.64701 5.12806L10.3485 5.14429L9.98373 4.54485L9.99995 3.84331L9.40051 4.20813L8.69898 4.19191L9.0638 4.79134L9.04757 5.49288ZM8.23445 9.40919L7.64811 9.79471L7.63984 9.09303L7.25432 8.50669L7.956 8.49842L8.54234 8.1129L8.55061 8.81458L8.93613 9.40092L8.23445 9.40919ZM8.74364 7.59526L9.44109 7.51796L10.07 7.82914L9.99274 7.13169L10.3039 6.50274L9.60647 6.58004L8.97752 6.26886L9.05483 6.96631L8.74364 7.59526Z"
      fill="#FFDC42" />
    <path fill-rule="evenodd" clip-rule="evenodd"
      d="M4.76193 6.73461L3.08254 7.9318L3.70218 5.96466L2.04462 4.73742L4.10697 4.71885L4.76193 2.76318L5.41689 4.71885L7.47923 4.73742L5.82168 5.96466L6.44131 7.9318L4.76193 6.73461Z"
      fill="#FFDC42" />
  </g>
</svg>
