<svg width="14" height="14" viewBox="0 0 14 14" fill="none" xmlns="http://www.w3.org/2000/svg">
  <path d="M12.3083 5.17708L7.40832 10.0917C7.34998 10.15 7.28679 10.1912 7.21873 10.2153C7.15068 10.2398 7.07776 10.2521 6.99998 10.2521C6.92221 10.2521 6.84929 10.2398 6.78123 10.2153C6.71318 10.1912 6.64998 10.15 6.59165 10.0917L1.67707 5.17708C1.54096 5.04097 1.4729 4.87083 1.4729 4.66667C1.4729 4.4625 1.54582 4.2875 1.69165 4.14167C1.83748 3.99583 2.00762 3.92292 2.20207 3.92292C2.39651 3.92292 2.56665 3.99583 2.71248 4.14167L6.99998 8.42917L11.2875 4.14167C11.4236 4.00556 11.5912 3.9375 11.7903 3.9375C11.9898 3.9375 12.1625 4.01042 12.3083 4.15625C12.4542 4.30208 12.5271 4.47222 12.5271 4.66667C12.5271 4.86111 12.4542 5.03125 12.3083 5.17708Z" fill="#71717A"/>
</svg>
